<?xml version="1.0" encoding="UTF-8"?>
<svg width="32px" height="31px" viewBox="0 0 32 31" version="1.1" xmlns="http://www.w3.org/2000/svg" xmlns:xlink="http://www.w3.org/1999/xlink">
    <!-- Generator: Sketch 54.1 (76490) - https://sketchapp.com -->
    <title>Untitled</title>
    <desc>Created with Sketch.</desc>
    <g id="Page-1" stroke="none" stroke-width="1" fill="none" fill-rule="evenodd">
        <g id="plane" fill="#FFFFFF" fill-rule="nonzero">
            <path d="M19.47,31 C18.7119052,31.0071913 18.0149145,30.5851247 17.67,29.91 L13.67,22.34 C13.4287126,21.8533898 13.6199626,21.2631503 14.1007803,21.0105173 C14.581598,20.7578843 15.1761603,20.9352393 15.44,21.41 L19.44,28.98 L29,3.06 L3,12.49 L12.8,17.75 L21.12,9.43 C21.5121222,9.03787783 22.1478778,9.03787783 22.54,9.43 C22.9321222,9.82212217 22.9321222,10.4578778 22.54,10.85 L13.69,19.69 C13.3812151,19.9991826 12.9074393,20.0720712 12.52,19.87 L2.09,14.33 C1.34277326,13.9802831 0.886964603,13.2076263 0.942284376,12.384468 C0.997604149,11.5613098 1.55269887,10.85659 2.34,10.61 L28.25,1.13 C28.9996476,0.813849602 29.8660985,0.983316749 30.4413909,1.55860911 C31.0166833,2.13390147 31.1861504,3.0003524 30.87,3.75 L21.39,29.66 C21.1234334,30.4263967 20.420226,30.9557776 19.61,31 L19.47,31 Z" id="Path"></path>
        </g>
    </g>
</svg>