<?xml version="1.0" encoding="utf-8"?>
<!-- Generator: Adobe Illustrator 25.3.1, SVG Export Plug-In . SVG Version: 6.00 Build 0)  -->
<svg version="1.1" id="レイヤー_1" xmlns="http://www.w3.org/2000/svg" xmlns:xlink="http://www.w3.org/1999/xlink" x="0px"
	 y="0px" viewBox="0 0 16 14.1" style="enable-background:new 0 0 16 14.1;" xml:space="preserve">
<style type="text/css">
	.st0{fill:#EB5C0B;}
</style>
<desc>Created with Sketch.</desc>
<g id="Page-1">
	<g id="team">
		<path id="Path" class="st0" d="M29.2-14.5c1.1,0,2-0.9,2-2s-0.9-2-2-2s-2,0.9-2,2c0,0.6,0.2,1.1,0.6,1.4l-1.6,2.8
			c-0.3-0.1-0.6-0.2-1-0.2c-0.8,0-1.5,0.3-2.1,0.8l-4.1-3c0.1-0.3,0.2-0.5,0.2-0.8c0-1.1-0.9-2-2-2c-1.1,0-2,0.9-2,2s0.9,2,2,2
			c0.5,0,0.9-0.2,1.2-0.4l4.1,3.1c-0.2,0.3-0.3,0.8-0.3,1.3c0,0.3,0.1,0.6,0.2,0.9l-4.3,2.3c-0.3-0.1-0.6-0.2-0.9-0.2
			c-1.1,0-2,0.9-2,2s0.9,2,2,2c1.1,0,2-0.9,2-2c0-0.4-0.1-0.8-0.3-1.1l3.9-2.1c0.5,0.7,1.4,1.2,2.4,1.2c0.5,0,1-0.1,1.4-0.3l1,1.2
			c-0.3,0.3-0.4,0.7-0.4,1.1c0,1.1,0.9,2,2,2s2-0.9,2-2s-0.9-2-2-2c-0.3,0-0.6,0.1-0.9,0.2l-0.9-1.2c0.5-0.5,0.8-1.2,0.8-2
			c0-0.9-0.4-1.8-1.1-2.3l1.6-2.8C28.8-14.5,29-14.5,29.2-14.5z"/>
	</g>
</g>
<path class="st0" d="M7.3,7.5C7,7.5,6.7,7.4,6.5,7.2C6.2,6.9,6.1,6.6,6.1,6.3c0-0.3,0.1-0.6,0.4-0.9C6.9,5,7.7,5,8.2,5.5
	c0.5,0.5,0.5,1.2,0,1.7l0,0C7.9,7.4,7.6,7.5,7.3,7.5z M7.3,5.6c-0.2,0-0.4,0.1-0.5,0.2C6.7,5.9,6.6,6.1,6.6,6.3
	c0,0.2,0.1,0.4,0.2,0.5c0.3,0.3,0.7,0.3,1,0c0.3-0.3,0.3-0.7,0-1C7.7,5.7,7.5,5.6,7.3,5.6z M8,7L8,7L8,7z"/>
<path class="st0" d="M4.1,2.4c-0.3,0-0.6-0.1-0.9-0.4c-0.5-0.5-0.5-1.2,0-1.7c0.5-0.5,1.3-0.5,1.7,0c0.5,0.5,0.5,1.2,0,1.7l0,0
	C4.7,2.3,4.4,2.4,4.1,2.4z M4.1,0.5c-0.2,0-0.4,0.1-0.5,0.2c-0.3,0.3-0.3,0.7,0,1c0.3,0.3,0.7,0.3,1,0c0.3-0.3,0.3-0.7,0-1
	C4.4,0.6,4.3,0.5,4.1,0.5z M4.7,1.9L4.7,1.9L4.7,1.9z"/>
<path class="st0" d="M14.6,3.1c-0.1,0-0.2,0-0.3,0c-0.3-0.1-0.6-0.3-0.7-0.5c-0.2-0.3-0.2-0.6-0.1-0.9c0.2-0.6,0.8-1.1,1.5-0.9
	c0.6,0.2,1.1,0.8,0.9,1.5c0,0,0,0,0,0C15.6,2.7,15.1,3.1,14.6,3.1z M14.6,1.1c-0.3,0-0.6,0.2-0.7,0.6c0,0.2,0,0.4,0.1,0.6
	c0.1,0.2,0.3,0.3,0.5,0.3c0.4,0.1,0.8-0.2,0.9-0.5l0,0c0.1-0.4-0.2-0.8-0.5-0.9C14.7,1.1,14.6,1.1,14.6,1.1z M15.5,2.1L15.5,2.1
	L15.5,2.1z"/>
<path class="st0" d="M14.7,11.7c-0.3,0-0.6-0.1-0.9-0.4c-0.5-0.5-0.5-1.2,0-1.7c0.5-0.5,1.3-0.5,1.7,0c0.5,0.5,0.5,1.2,0,1.7
	C15.4,11.6,15.1,11.7,14.7,11.7z M14.7,9.7c-0.2,0-0.4,0.1-0.5,0.2c-0.1,0.1-0.2,0.3-0.2,0.5c0,0.2,0.1,0.4,0.2,0.5
	c0.3,0.3,0.7,0.3,1,0c0.1-0.1,0.2-0.3,0.2-0.5c0-0.2-0.1-0.4-0.2-0.5C15.1,9.8,14.9,9.7,14.7,9.7z"/>
<path class="st0" d="M4.5,14.1L4.5,14.1c-0.3,0-0.6-0.1-0.9-0.4c-0.5-0.5-0.5-1.2,0-1.7c0.5-0.5,1.2-0.5,1.7,0
	c0.5,0.5,0.5,1.2,0,1.7l0,0l0,0l0,0C5.2,14,4.9,14.1,4.5,14.1z M4.5,12.2c-0.2,0-0.4,0.1-0.5,0.2c-0.3,0.3-0.3,0.7,0,1
	c0.1,0.1,0.3,0.2,0.5,0.2c0,0,0,0,0,0c0.2,0,0.4-0.1,0.5-0.2l0,0c0.1-0.1,0.2-0.3,0.2-0.5c0-0.2-0.1-0.4-0.2-0.5
	C4.9,12.2,4.7,12.2,4.5,12.2z"/>
<path class="st0" d="M1.2,8.3c-0.1,0-0.2,0-0.3,0C0.6,8.2,0.4,8,0.2,7.7S0,7.1,0.1,6.8C0.1,6.5,0.3,6.2,0.6,6
	c0.3-0.2,0.6-0.2,0.9-0.1C1.8,6,2.1,6.2,2.3,6.4C2.4,6.7,2.5,7,2.4,7.3C2.3,7.7,2.2,7.9,1.9,8.1C1.7,8.2,1.5,8.3,1.2,8.3z M1.2,6.3
	c-0.3,0-0.6,0.2-0.7,0.6C0.4,7.3,0.7,7.7,1.1,7.8C1.5,7.9,1.9,7.6,2,7.2l0,0C2,6.8,1.8,6.5,1.4,6.4C1.4,6.3,1.3,6.3,1.2,6.3z"/>
<path class="st0" d="M6,4.5c-0.1,0-0.2,0-0.2-0.1L5.1,3.2C5,3.1,5,3,5.1,2.9c0.1-0.1,0.3,0,0.3,0.1l0.8,1.2c0.1,0.1,0,0.3-0.1,0.3
	C6.1,4.5,6.1,4.5,6,4.5z"/>
<path class="st0" d="M9.5,5.3c-0.1,0-0.2,0-0.2-0.1C9.2,5.1,9.3,5,9.4,4.9l3.4-1.7c0.1-0.1,0.3,0,0.3,0.1c0.1,0.1,0,0.3-0.1,0.3
	L9.6,5.3C9.6,5.3,9.5,5.3,9.5,5.3z"/>
<path class="st0" d="M5.6,11.1C5.5,11.1,5.5,11.1,5.6,11.1c-0.2-0.1-0.3-0.2-0.2-0.3l0.9-2.4c0-0.1,0.2-0.2,0.3-0.1
	c0.1,0,0.2,0.2,0.1,0.3l-0.9,2.4C5.7,11,5.7,11.1,5.6,11.1z"/>
<path class="st0" d="M3.5,7.1C3.3,7.1,3.2,7,3.2,6.9c0-0.1,0.1-0.2,0.2-0.3l1.5-0.2c0.1,0,0.2,0.1,0.3,0.2C5.2,6.8,5.1,6.9,5,7
	L3.5,7.1C3.5,7.1,3.5,7.1,3.5,7.1z"/>
<path class="st0" d="M12.7,9.6c0,0-0.1,0-0.1,0l-3.4-2C9.1,7.6,9,7.4,9.1,7.3c0.1-0.1,0.2-0.2,0.3-0.1l3.4,2
	c0.1,0.1,0.2,0.2,0.1,0.3C12.9,9.6,12.8,9.6,12.7,9.6z"/>
</svg>
